<svg width="697" height="380" viewBox="0 0 697 380" fill="none" xmlns="http://www.w3.org/2000/svg">
<g clip-path="url(#clip0_1_8)">
<path d="M605.042 377.509C605.108 377.309 611.567 357.342 600.136 339.526L598.969 340.273C610.034 357.52 603.791 376.878 603.727 377.071L605.042 377.509Z" fill="#E4E4E4"/>
<path d="M591.962 342.088C592.209 343.255 592.683 344.362 593.357 345.346C594.032 346.33 594.894 347.171 595.894 347.822C596.894 348.473 598.012 348.921 599.185 349.141C600.359 349.36 601.564 349.346 602.732 349.1C603.9 348.854 605.008 348.38 605.992 347.706C606.977 347.032 607.819 346.171 608.471 345.172C609.123 344.173 609.571 343.055 609.79 341.883C610.01 340.711 609.996 339.507 609.75 338.34C608.714 333.432 599.932 321.218 595.02 322.253C590.108 323.288 590.927 337.18 591.962 342.088Z" fill="#E4E4E4"/>
<path d="M593.619 365.041C598.002 369.774 605.844 369.646 605.844 369.646C605.844 369.646 606.579 361.844 602.196 357.111C597.812 352.378 589.97 352.506 589.97 352.506C589.97 352.506 589.235 360.308 593.619 365.041Z" fill="#E4E4E4"/>
<path d="M660.061 378.894C660.218 378.423 675.459 331.303 648.484 289.257L645.73 291.021C671.842 331.722 657.109 377.404 656.957 377.861L660.061 378.894Z" fill="#E4E4E4"/>
<path d="M629.194 295.304C630.369 300.864 633.707 305.73 638.473 308.833C643.238 311.935 649.042 313.019 654.608 311.846C660.173 310.673 665.045 307.34 668.151 302.579C671.257 297.818 672.343 292.02 671.171 286.459C668.727 274.877 648.002 246.053 636.41 248.495C624.818 250.938 626.75 283.722 629.194 295.304Z" fill="#E4E4E4"/>
<path d="M633.103 349.472C643.448 360.641 661.955 360.338 661.955 360.338C661.955 360.338 663.689 341.926 653.344 330.756C642.999 319.587 624.492 319.89 624.492 319.89C624.492 319.89 622.758 338.302 633.103 349.472Z" fill="#E4E4E4"/>
<path d="M402.09 375.346L391.976 371.091L385.037 320.429H292.638L285.117 370.884L276.068 375.404C275.635 375.62 275.288 375.977 275.083 376.415C274.877 376.853 274.826 377.347 274.938 377.818C275.049 378.289 275.316 378.708 275.695 379.008C276.075 379.308 276.545 379.472 277.029 379.472H401.257C401.753 379.472 402.234 379.3 402.618 378.986C403.002 378.672 403.265 378.235 403.363 377.749C403.461 377.264 403.388 376.759 403.156 376.321C402.924 375.882 402.548 375.538 402.09 375.346Z" fill="#E6E6E6"/>
<path d="M566.29 327.17H112.399C110.018 327.164 107.736 326.215 106.054 324.531C104.371 322.847 103.427 320.564 103.427 318.185V254.235H575.262V318.185C575.262 320.564 574.318 322.847 572.636 324.531C570.954 326.215 568.672 327.164 566.29 327.17Z" fill="#CCCCCC"/>
<path d="M575.737 284.459H103.013V10.8309C103.016 7.95931 104.159 5.2063 106.191 3.17582C108.224 1.14534 110.979 0.00321864 113.853 0H564.896C567.77 0.00321676 570.526 1.14534 572.558 3.17581C574.59 5.20629 575.734 7.9593 575.737 10.8309V284.459Z" fill="#3F3D56"/>
<path d="M547.506 19.8594H131.245C129.029 19.8621 126.906 20.7432 125.34 22.3091C123.774 23.8751 122.894 25.9979 122.893 28.2115V256.248C122.894 258.462 123.774 260.585 125.34 262.151C126.906 263.717 129.029 264.598 131.245 264.6H547.506C549.721 264.597 551.844 263.715 553.41 262.149C554.976 260.584 555.856 258.462 555.859 256.248V28.2115C555.856 25.9982 554.976 23.8761 553.41 22.3104C551.844 20.7447 549.721 19.8633 547.506 19.8594Z" fill="white"/>
<path d="M205.03 19.8594V264.6H131.245C129.029 264.598 126.906 263.717 125.34 262.151C123.774 260.585 122.894 258.462 122.893 256.248V28.2115C122.894 25.9979 123.774 23.8751 125.34 22.3091C126.906 20.7432 129.029 19.8621 131.245 19.8594H205.03Z" fill="#F0F0F0"/>
<path d="M144.159 143.494C143.328 143.306 142.466 143.301 141.634 143.481C140.801 143.661 140.018 144.021 139.34 144.536C138.662 145.051 138.105 145.708 137.708 146.461C137.312 147.215 137.085 148.046 137.045 148.896L117.184 154.746L125.406 161.681L143.006 155.062C144.44 155.035 145.814 154.484 146.868 153.512C147.922 152.54 148.583 151.216 148.725 149.79C148.867 148.364 148.48 146.936 147.639 145.775C146.797 144.615 145.559 143.803 144.159 143.494H144.159Z" fill="#FFB6B6"/>
<path d="M63.9114 187.523C61.948 187.521 60.0493 186.822 58.5538 185.55C57.0584 184.279 56.0634 182.518 55.7464 180.582C55.4294 178.646 55.8109 176.661 56.8229 174.98C57.8349 173.299 59.4116 172.031 61.2719 171.404L101.519 157.829L132.913 146.402L136.765 159.876L109.051 178.122L65.6437 187.341C65.0742 187.462 64.4936 187.523 63.9114 187.523Z" fill="#6C63FF"/>
<path d="M89.0975 373.142H94.748L97.4367 351.364H89.0961L89.0975 373.142Z" fill="#FFB6B6"/>
<path d="M87.6558 371.299L98.7844 371.298H98.7848C100.666 371.298 102.469 372.045 103.799 373.374C105.129 374.702 105.877 376.505 105.877 378.384V378.614L87.6561 378.615L87.6558 371.299Z" fill="#2F2E41"/>
<path d="M45.7704 373.142H51.4209L54.1096 351.364H45.7697L45.7704 373.142Z" fill="#FFB6B6"/>
<path d="M44.3289 371.299L55.4575 371.298H55.4579C57.3388 371.298 59.1426 372.045 60.4726 373.374C61.8026 374.702 62.5498 376.505 62.5499 378.384V378.614L44.3293 378.615L44.3289 371.299Z" fill="#2F2E41"/>
<path d="M45.7144 242.516C43.1284 248.534 42.5624 255.228 44.1012 261.595L42.488 369.622H54.8985L61.8468 310.214L73.3699 271.068L85.8148 301.463V364.812L97.7989 364.096L104.252 296.858L96.877 248.963L45.7144 242.516Z" fill="#2F2E41"/>
<path d="M91.1154 158.469L80.5142 155.245L77.7486 149.719H64.1314L60.6944 155.706C60.6944 155.706 46.8667 160.771 46.4058 185.18C45.9449 209.588 44.1012 248.733 44.1012 248.733L98.6245 256.499L91.1154 158.469Z" fill="#6C63FF"/>
<path d="M106.769 252.128C107.126 251.356 107.31 250.514 107.307 249.663C107.304 248.812 107.114 247.972 106.751 247.202C106.388 246.432 105.86 245.751 105.205 245.207C104.55 244.663 103.784 244.269 102.96 244.053L101.362 223.426L92.8631 230.02L95.6837 248.596C95.412 250.003 95.6664 251.461 96.3986 252.693C97.1307 253.925 98.2898 254.846 99.6561 255.282C101.022 255.717 102.501 255.636 103.812 255.055C105.123 254.474 106.175 253.432 106.769 252.128H106.769Z" fill="#FFB6B6"/>
<path d="M92.2684 241.497L80.1675 210.618V166.278C80.1675 164.166 80.9755 162.134 82.4261 160.598C83.8767 159.062 85.8601 158.138 87.9703 158.016C90.0805 157.893 92.1577 158.581 93.7767 159.939C95.3956 161.297 96.4339 163.222 96.6788 165.319L101.6 207.475L106.26 240.533L92.2684 241.497Z" fill="#6C63FF"/>
<path d="M73.5522 142.55C81.0678 142.55 87.1603 136.463 87.1603 128.953C87.1603 121.444 81.0678 115.357 73.5522 115.357C66.0367 115.357 59.9441 121.444 59.9441 128.953C59.9441 136.463 66.0367 142.55 73.5522 142.55Z" fill="#FFB9B9"/>
<path d="M74.4433 124.82C73.8066 125.637 72.9338 126.374 72.7936 127.4C72.6898 128.16 73.0221 128.911 73.0537 129.677C73.0563 130.451 72.7636 131.196 72.2353 131.761C71.707 132.326 70.9828 132.669 70.2104 132.72C69.6723 132.043 68.8949 131.599 68.0385 131.479C67.6123 131.43 67.1819 131.52 66.8105 131.734C66.4391 131.949 66.1463 132.277 65.9752 132.67C65.5711 133.81 66.5065 134.969 66.6569 136.169C66.6769 137.057 66.5331 137.942 66.2327 138.778C65.8879 140.155 65.7958 141.613 65.1908 142.897C64.5859 144.182 63.2408 145.287 61.8483 145.004C60.6775 144.765 59.8852 143.632 59.5578 142.483C59.2303 141.335 59.245 140.118 59.008 138.947C58.238 135.145 54.9621 132.327 53.6768 128.666C52.0299 123.975 54.0083 118.61 57.4181 114.989C58.7966 113.403 60.5962 112.239 62.6088 111.631C64.7337 111.091 66.9802 111.479 69.1606 111.248C71.4924 111.001 73.6841 110.054 75.9502 109.453C78.2164 108.851 80.7475 108.624 82.8074 109.744C84.2441 110.524 85.2846 111.871 86.6231 112.809C88.1577 113.878 90.0182 114.375 91.8817 114.216L89.6565 115.187C90.5082 115.968 91.5368 116.531 92.6542 116.828C91.7448 117.548 90.6199 117.943 89.4596 117.948C89.7016 118.384 90.0304 118.766 90.4258 119.069C90.8211 119.373 91.2746 119.593 91.7582 119.714C90.0686 120.507 88.2747 121.319 86.4167 121.14C85.5066 121.053 84.6367 120.729 83.7377 120.563C81.8215 120.208 79.8536 120.576 77.9396 120.943C76.9345 121.135 75.701 121.32 75.1935 122.286C74.7708 123.09 75.0941 123.986 74.4433 124.82Z" fill="#2F2E41"/>
<path d="M163.961 163.921C175.951 163.921 185.671 154.209 185.671 142.23C185.671 130.25 175.951 120.539 163.961 120.539C151.972 120.539 142.252 130.25 142.252 142.23C142.252 154.209 151.972 163.921 163.961 163.921Z" fill="#6C63FF"/>
<path d="M176.987 142.23H165.264V130.517H162.659V142.23H150.936V144.833H162.659V156.546H165.264V144.833H176.987V142.23Z" fill="white"/>
<path d="M348.829 48.4845C348.159 48.4852 347.517 48.7512 347.044 49.2242C346.571 49.6972 346.304 50.3385 346.304 51.0075V93.2518C346.304 93.9207 346.571 94.5621 347.044 95.0351C347.517 95.5082 348.159 95.7743 348.829 95.775H519.275C519.944 95.7743 520.586 95.5082 521.059 95.0351C521.533 94.5621 521.799 93.9207 521.8 93.2518V51.0075C521.799 50.3385 521.533 49.6972 521.059 49.2242C520.586 48.7512 519.944 48.4852 519.275 48.4845H348.829Z" fill="white"/>
<path d="M348.829 48.4845C348.159 48.4852 347.517 48.7512 347.044 49.2242C346.571 49.6972 346.304 50.3385 346.304 51.0075V93.2518C346.304 93.9207 346.571 94.5621 347.044 95.0351C347.517 95.5082 348.159 95.7743 348.829 95.775H519.275C519.944 95.7743 520.586 95.5082 521.059 95.0351C521.533 94.5621 521.799 93.9207 521.8 93.2518V51.0075C521.799 50.3385 521.533 49.6972 521.059 49.2242C520.586 48.7512 519.944 48.4852 519.275 48.4845H348.829Z" fill="#E6E6E6"/>
<path d="M349.144 92.9366H518.959V51.323H349.144V92.9366Z" fill="white"/>
<path d="M368.452 63.2994C367.866 63.2994 367.304 63.5319 366.889 63.9459C366.475 64.36 366.242 64.9215 366.242 65.507C366.242 66.0924 366.475 66.654 366.889 67.068C367.304 67.482 367.866 67.7145 368.452 67.7145H499.646C499.936 67.7147 500.223 67.6577 500.491 67.5469C500.759 67.4361 501.003 67.2735 501.208 67.0686C501.414 66.8637 501.576 66.6204 501.688 66.3527C501.799 66.0849 501.856 65.7978 501.856 65.5079C501.856 65.218 501.799 64.9309 501.688 64.663C501.577 64.3951 501.415 64.1517 501.21 63.9466C501.005 63.7415 500.761 63.5788 500.493 63.4678C500.225 63.3567 499.938 63.2995 499.648 63.2994H368.452Z" fill="#E4E4E4"/>
<path d="M368.452 76.545C367.866 76.546 367.305 76.779 366.892 77.1929C366.478 77.6068 366.246 78.1677 366.246 78.7525C366.246 79.3374 366.478 79.8983 366.892 80.3122C367.305 80.7261 367.866 80.9591 368.452 80.9601H499.646C500.232 80.9614 500.794 80.7301 501.21 80.317C501.625 79.9039 501.859 79.343 501.86 78.7575C501.861 78.172 501.63 77.61 501.216 77.195C500.803 76.7801 500.242 76.5463 499.656 76.545H368.452Z" fill="#E4E4E4"/>
<path d="M230.301 120.164C229.632 120.164 228.99 120.43 228.516 120.903C228.043 121.376 227.777 122.018 227.776 122.687V164.931C227.777 165.6 228.043 166.241 228.516 166.714C228.99 167.187 229.632 167.453 230.301 167.454H400.747C401.417 167.453 402.058 167.187 402.532 166.714C403.005 166.241 403.272 165.6 403.272 164.931V122.687C403.272 122.018 403.005 121.376 402.532 120.903C402.058 120.43 401.417 120.164 400.747 120.164H230.301Z" fill="white"/>
<path d="M230.301 120.164C229.632 120.164 228.99 120.43 228.516 120.903C228.043 121.376 227.777 122.018 227.776 122.687V164.931C227.777 165.6 228.043 166.241 228.516 166.714C228.99 167.187 229.632 167.453 230.301 167.454H400.747C401.417 167.453 402.058 167.187 402.532 166.714C403.005 166.241 403.272 165.6 403.272 164.931V122.687C403.272 122.018 403.005 121.376 402.532 120.903C402.058 120.43 401.417 120.164 400.747 120.164H230.301Z" fill="#E6E6E6"/>
<path d="M230.617 164.616H400.431V123.002H230.617V164.616Z" fill="white"/>
<path d="M249.924 134.979C249.338 134.979 248.776 135.211 248.362 135.625C247.947 136.039 247.715 136.601 247.715 137.186C247.715 137.772 247.947 138.333 248.362 138.747C248.776 139.161 249.338 139.394 249.924 139.394H381.118C381.408 139.394 381.696 139.337 381.964 139.226C382.232 139.115 382.475 138.953 382.681 138.748C382.886 138.543 383.049 138.3 383.16 138.032C383.271 137.764 383.328 137.477 383.328 137.187C383.329 136.897 383.272 136.61 383.161 136.342C383.05 136.074 382.887 135.831 382.682 135.626C382.477 135.421 382.233 135.258 381.965 135.147C381.697 135.036 381.41 134.979 381.12 134.979H249.924Z" fill="#E4E4E4"/>
<path d="M249.924 148.224C249.339 148.225 248.778 148.458 248.364 148.872C247.951 149.286 247.718 149.847 247.718 150.432C247.718 151.017 247.951 151.577 248.364 151.991C248.778 152.405 249.339 152.638 249.924 152.639H381.118C381.704 152.641 382.267 152.409 382.682 151.996C383.097 151.583 383.331 151.022 383.333 150.437C383.334 149.851 383.102 149.289 382.689 148.874C382.275 148.459 381.714 148.225 381.128 148.224H249.924Z" fill="#E4E4E4"/>
<path d="M438.062 233.543C438.821 233.46 439.553 233.211 440.205 232.814C440.857 232.418 441.415 231.883 441.838 231.248C442.261 230.613 442.54 229.893 442.655 229.138C442.769 228.384 442.717 227.614 442.501 226.882L457.607 216.101L448.605 212.638L435.64 223.406C434.433 223.85 433.431 224.72 432.824 225.852C432.217 226.984 432.046 228.3 432.345 229.55C432.643 230.799 433.39 231.896 434.444 232.632C435.497 233.368 436.785 233.692 438.062 233.543Z" fill="#FFB7B7"/>
<path d="M446.448 226.443L441.437 217.892L441.543 217.77L461.762 194.772L477.461 168.023L491.093 169.759L491.294 173.876L491.253 173.938L469.595 206.467L469.572 206.486L446.448 226.443Z" fill="#3F3D56"/>
<path d="M513.25 371.149L505.542 371.148L501.874 341.438L513.252 341.439L513.25 371.149Z" fill="#FFB7B7"/>
<path d="M515.217 378.615L490.359 378.614V378.3C490.36 375.736 491.379 373.277 493.193 371.465C495.008 369.652 497.469 368.633 500.035 368.633H500.035L515.217 368.634L515.217 378.615Z" fill="#2F2E41"/>
<path d="M446.903 370.896L439.405 369.108L442.743 339.359L453.81 341.999L446.903 370.896Z" fill="#FFB7B7"/>
<path d="M447.08 378.615L422.903 372.847L422.976 372.541C423.572 370.047 425.135 367.892 427.321 366.55C429.507 365.208 432.137 364.788 434.633 365.383L434.634 365.383L449.401 368.907L447.08 378.615Z" fill="#2F2E41"/>
<path d="M476.864 154.44V141.475C476.864 136.867 478.696 132.448 481.957 129.19C485.218 125.932 489.641 124.101 494.253 124.101C498.864 124.101 503.287 125.932 506.548 129.19C509.809 132.448 511.641 136.867 511.641 141.475V154.44C511.64 155.059 511.394 155.652 510.956 156.09C510.518 156.527 509.925 156.773 509.305 156.774H479.2C478.581 156.773 477.987 156.527 477.549 156.09C477.111 155.652 476.865 155.059 476.864 154.44Z" fill="#2F2E41"/>
<path d="M489.961 156.577C497.002 156.577 502.71 150.874 502.71 143.839C502.71 136.805 497.002 131.102 489.961 131.102C482.92 131.102 477.213 136.805 477.213 143.839C477.213 150.874 482.92 156.577 489.961 156.577Z" fill="#FFB7B7"/>
<path d="M472.751 142.512C472.755 138.869 474.205 135.375 476.784 132.799C479.363 130.222 482.859 128.773 486.506 128.769H489.101C492.748 128.773 496.244 130.222 498.823 132.799C501.401 135.375 502.852 138.869 502.856 142.512V142.772H497.371L495.501 137.538L495.126 142.772H492.292L491.348 140.131L491.159 142.772H472.751V142.512Z" fill="#2F2E41"/>
<path d="M497.398 211.068L464.938 209.834L463.123 188.616C461.724 184.732 461.701 181.398 463.056 178.705C464.221 176.494 466.179 174.803 468.537 173.971L475.64 165.4C476.554 164.298 477.702 163.413 479 162.808C480.298 162.204 481.714 161.895 483.147 161.904L501.6 162.03C502.045 161.763 504.743 160.393 510.065 162.698C515.836 165.198 514.496 173.881 514.482 173.968L514.469 174.049L514.405 174.103L502.13 184.431L497.398 211.068Z" fill="#3F3D56"/>
<path d="M465.196 207.554L449.842 235.523L438.202 362.771L451.354 366.784L474.635 267.243L501.654 363.96L517.419 364.354L506.684 252.743L497.303 209.53L465.196 207.554Z" fill="#2F2E41"/>
<path d="M365.825 186.821C365.188 186.616 364.495 186.671 363.899 186.975C363.302 187.279 362.851 187.807 362.644 188.443L349.606 228.629C349.4 229.266 349.456 229.958 349.76 230.554C350.064 231.149 350.593 231.6 351.229 231.807L513.369 284.323C514.006 284.528 514.699 284.473 515.295 284.169C515.891 283.865 516.343 283.337 516.55 282.701L529.588 242.515C529.794 241.878 529.738 241.186 529.434 240.591C529.13 239.995 528.601 239.544 527.964 239.337L365.825 186.821Z" fill="white"/>
<path d="M365.825 186.821C365.188 186.616 364.495 186.671 363.899 186.975C363.302 187.279 362.851 187.807 362.644 188.443L349.606 228.629C349.4 229.266 349.456 229.958 349.76 230.554C350.064 231.149 350.593 231.6 351.229 231.807L513.369 284.323C514.006 284.528 514.699 284.473 515.295 284.169C515.891 283.865 516.343 283.337 516.55 282.701L529.588 242.515C529.794 241.878 529.738 241.186 529.434 240.591C529.13 239.995 528.601 239.544 527.964 239.337L365.825 186.821Z" fill="#E6E6E6"/>
<path d="M352.406 229.204L513.945 281.525L526.788 241.94L365.249 189.619L352.406 229.204Z" fill="white"/>
<path d="M379.919 206.96C379.362 206.78 378.756 206.828 378.234 207.095C377.712 207.361 377.318 207.823 377.137 208.38C376.956 208.937 377.004 209.542 377.271 210.064C377.537 210.585 377.999 210.98 378.556 211.16L503.357 251.582C503.633 251.672 503.924 251.707 504.214 251.684C504.503 251.661 504.785 251.582 505.044 251.45C505.303 251.319 505.533 251.137 505.722 250.917C505.91 250.696 506.053 250.441 506.143 250.165C506.233 249.889 506.267 249.598 506.244 249.309C506.221 249.019 506.141 248.738 506.009 248.479C505.877 248.221 505.696 247.991 505.475 247.803C505.254 247.615 504.998 247.472 504.721 247.383L504.72 247.382L379.919 206.96Z" fill="#6C63FF"/>
<path d="M375.831 219.56C375.274 219.381 374.669 219.43 374.148 219.697C373.627 219.963 373.233 220.425 373.052 220.981C372.872 221.537 372.92 222.142 373.185 222.663C373.451 223.184 373.912 223.579 374.468 223.76L499.269 264.182C499.826 264.364 500.432 264.317 500.955 264.052C501.477 263.787 501.873 263.326 502.055 262.769C502.237 262.212 502.19 261.606 501.925 261.084C501.66 260.562 501.198 260.167 500.641 259.985L500.632 259.982L375.831 219.56Z" fill="#6C63FF"/>
<path d="M506.217 252.834C506.785 252.324 507.235 251.696 507.534 250.994C507.833 250.292 507.975 249.533 507.949 248.771C507.922 248.008 507.729 247.26 507.382 246.58C507.036 245.901 506.544 245.305 505.942 244.835L511.936 227.281L502.6 229.705L498.339 246.003C497.617 247.066 497.309 248.356 497.476 249.63C497.642 250.904 498.27 252.073 499.241 252.915C500.212 253.757 501.459 254.214 502.745 254.199C504.03 254.184 505.266 253.698 506.217 252.834V252.834Z" fill="#FFB7B7"/>
<path d="M508.895 242.181L499.836 238.147L502.88 207.525L500.047 176.647L512.14 170.125L514.704 173.354L514.706 173.427L516.065 212.473L516.057 212.503L508.895 242.181Z" fill="#3F3D56"/>
<path d="M695.942 380H222.214C221.974 380.005 221.74 379.931 221.547 379.789C221.354 379.647 221.213 379.445 221.147 379.215C221.106 379.058 221.101 378.894 221.133 378.735C221.165 378.577 221.233 378.427 221.332 378.299C221.431 378.171 221.558 378.067 221.703 377.995C221.849 377.923 222.009 377.886 222.171 377.886H695.855C696.108 377.877 696.356 377.954 696.56 378.104C696.763 378.254 696.91 378.469 696.976 378.713C697.01 378.867 697.009 379.028 696.973 379.182C696.937 379.336 696.867 379.48 696.768 379.604C696.669 379.727 696.543 379.827 696.4 379.896C696.257 379.964 696.101 380 695.942 380Z" fill="#CCCCCC"/>
<path d="M159.448 380H1.10075C0.861147 380.005 0.626593 379.931 0.433632 379.789C0.240671 379.647 0.100138 379.445 0.0339334 379.215C-0.00739907 379.058 -0.0122099 378.894 0.0198666 378.735C0.0519432 378.577 0.12005 378.427 0.218954 378.299C0.317859 378.171 0.44492 378.067 0.59036 377.995C0.7358 377.923 0.895744 377.886 1.05788 377.886H159.362C159.614 377.877 159.863 377.954 160.066 378.104C160.269 378.254 160.416 378.469 160.482 378.713C160.516 378.867 160.515 379.028 160.479 379.182C160.443 379.336 160.373 379.48 160.274 379.604C160.175 379.727 160.049 379.827 159.906 379.896C159.763 379.964 159.607 380 159.448 380Z" fill="#CCCCCC"/>
</g>
<defs>
<clipPath id="clip0_1_8">
<rect width="697" height="380" fill="white"/>
</clipPath>
</defs>
</svg>
